<svg width="206.08" height="30.8" viewBox="0 0 206.08 30.8" xmlns="http://www.w3.org/2000/svg"><g id="svgGroup" stroke-linecap="round" fill-rule="evenodd" font-size="9pt" stroke="#000000" stroke-width="0" fill="#ffffff" style="stroke:#000000;stroke-width:0;fill:#ffffff"><path d="M 191.64 0 L 191.64 8.12 A 24.896 24.896 0 0 1 191.565 10.079 A 22.94 22.94 0 0 1 191.56 10.14 Q 191.484 11.071 191.408 11.695 A 20.503 20.503 0 0 1 191.4 11.76 L 191.68 11.76 Q 192.72 10.08 194.46 9.28 Q 196.2 8.48 198.24 8.48 Q 200.946 8.48 202.749 9.433 A 6.091 6.091 0 0 1 204.06 10.36 A 5.692 5.692 0 0 1 205.51 12.613 Q 205.848 13.538 205.986 14.685 A 14.084 14.084 0 0 1 206.08 16.36 L 206.08 30.4 L 201.88 30.4 L 201.88 16.96 Q 201.88 12.625 198.596 12.019 A 6.368 6.368 0 0 0 197.44 11.92 A 8.68 8.68 0 0 0 195.823 12.06 Q 193.791 12.446 192.88 13.9 A 6.986 6.986 0 0 0 192.113 15.665 Q 191.862 16.528 191.744 17.573 A 17.815 17.815 0 0 0 191.64 19.56 L 191.64 30.4 L 187.4 30.4 L 187.4 0 L 191.64 0 Z M 111.16 1.84 L 119.16 1.84 Q 124.64 1.84 127.26 3.88 Q 129.853 5.899 129.88 9.995 A 13.101 13.101 0 0 1 129.88 10.08 Q 129.88 12.022 129.242 13.418 A 5.678 5.678 0 0 1 129.06 13.78 A 7.585 7.585 0 0 1 127.648 15.643 A 6.948 6.948 0 0 1 126.96 16.22 Q 125.68 17.16 124.28 17.72 L 132.28 30.4 L 127.32 30.4 L 120.44 18.84 L 115.48 18.84 L 115.48 30.4 L 111.16 30.4 L 111.16 1.84 Z M 20.56 25.84 L 20.56 29.56 Q 18.88 30.2 17.14 30.5 Q 15.646 30.758 13.694 30.794 A 35.105 35.105 0 0 1 13.04 30.8 A 17.6 17.6 0 0 1 9.954 30.544 Q 7.56 30.118 5.76 28.98 A 11.14 11.14 0 0 1 1.509 24.014 A 13.461 13.461 0 0 1 1.44 23.86 A 16.684 16.684 0 0 1 0.296 19.91 A 23.105 23.105 0 0 1 0 16.12 A 20.085 20.085 0 0 1 0.392 12.065 A 15.654 15.654 0 0 1 1.58 8.48 Q 3.16 5.16 6.2 3.3 A 12.255 12.255 0 0 1 10.17 1.771 Q 11.784 1.44 13.64 1.44 Q 15.8 1.44 17.86 1.9 Q 19.92 2.36 21.64 3.2 L 20.04 6.8 A 24.088 24.088 0 0 0 17.817 5.919 A 27.881 27.881 0 0 0 17.02 5.66 A 11.461 11.461 0 0 0 13.825 5.162 A 12.84 12.84 0 0 0 13.6 5.16 A 9.98 9.98 0 0 0 10.683 5.565 A 7.63 7.63 0 0 0 6.92 8.1 A 9.968 9.968 0 0 0 5.083 11.711 Q 4.665 13.172 4.558 14.915 A 20.178 20.178 0 0 0 4.52 16.16 Q 4.52 19.87 5.715 22.427 A 9.3 9.3 0 0 0 6.76 24.16 A 7.189 7.189 0 0 0 10.997 26.809 A 11.391 11.391 0 0 0 13.56 27.08 A 18.123 18.123 0 0 0 16.861 26.786 A 16.732 16.732 0 0 0 17.1 26.74 Q 18.8 26.4 20.56 25.84 Z M 40.56 8.84 L 44.8 8.84 L 44.8 30.4 L 41.4 30.4 L 40.8 27.56 L 40.6 27.56 Q 39.56 29.24 37.72 30.02 Q 35.88 30.8 33.84 30.8 A 12.333 12.333 0 0 1 31.641 30.616 Q 29.415 30.213 28.04 28.92 A 5.706 5.706 0 0 1 26.605 26.674 Q 26.04 25.128 26.04 22.96 L 26.04 8.84 L 30.32 8.84 L 30.32 22.32 A 8.343 8.343 0 0 0 30.514 24.207 Q 31.114 26.781 33.57 27.227 A 6.22 6.22 0 0 0 34.68 27.32 Q 36.681 27.32 37.941 26.608 A 3.813 3.813 0 0 0 39.28 25.36 A 6.807 6.807 0 0 0 40.085 23.572 Q 40.337 22.725 40.456 21.702 A 16.94 16.94 0 0 0 40.56 19.76 L 40.56 8.84 Z M 165.56 16.36 L 165.56 30.4 L 161.36 30.4 L 161.36 16.96 Q 161.36 12.625 158.076 12.019 A 6.368 6.368 0 0 0 156.92 11.92 Q 154.972 11.92 153.74 12.595 A 3.712 3.712 0 0 0 152.36 13.88 Q 151.126 15.83 151.12 19.484 A 21.741 21.741 0 0 0 151.12 19.52 L 151.12 30.4 L 146.88 30.4 L 146.88 8.84 L 150.24 8.84 L 150.84 11.72 L 151.08 11.72 Q 152.12 10.04 153.94 9.24 Q 155.76 8.44 157.8 8.44 Q 160.482 8.44 162.269 9.396 A 6.032 6.032 0 0 1 163.56 10.32 Q 165.56 12.2 165.56 16.36 Z M 67.12 29.48 L 67.12 25.76 A 16.74 16.74 0 0 0 68.543 26.367 Q 69.302 26.652 70.17 26.908 A 28.124 28.124 0 0 0 70.42 26.98 Q 72.32 27.52 74.12 27.52 Q 76.52 27.52 77.58 26.76 A 2.613 2.613 0 0 0 78.285 26.028 Q 78.624 25.488 78.639 24.789 A 3.041 3.041 0 0 0 78.64 24.72 Q 78.64 24 78.24 23.42 A 2.403 2.403 0 0 0 77.922 23.054 Q 77.497 22.646 76.74 22.22 A 12.942 12.942 0 0 0 75.975 21.825 Q 75.132 21.422 73.925 20.955 A 50.107 50.107 0 0 0 73.52 20.8 Q 71.928 20.157 70.722 19.525 A 19.437 19.437 0 0 1 70.02 19.14 A 7.491 7.491 0 0 1 68.834 18.301 A 5.653 5.653 0 0 1 67.84 17.18 A 4.272 4.272 0 0 1 67.259 15.829 Q 67.08 15.112 67.08 14.24 A 5.504 5.504 0 0 1 67.418 12.269 Q 67.929 10.927 69.211 10.028 A 6.192 6.192 0 0 1 69.34 9.94 A 8.294 8.294 0 0 1 71.78 8.863 Q 73.344 8.44 75.32 8.44 A 17.146 17.146 0 0 1 78.024 8.647 A 14.981 14.981 0 0 1 79.02 8.84 Q 80.76 9.24 82.4 9.96 L 81 13.2 Q 79.6 12.6 78.12 12.18 Q 76.64 11.76 75.12 11.76 A 9.879 9.879 0 0 0 74.061 11.813 Q 72.975 11.93 72.289 12.309 A 2.829 2.829 0 0 0 72.2 12.36 A 2.303 2.303 0 0 0 71.634 12.826 A 1.797 1.797 0 0 0 71.2 14.04 Q 71.2 14.8 71.68 15.36 A 2.899 2.899 0 0 0 72.066 15.728 Q 72.534 16.104 73.3 16.48 A 26.748 26.748 0 0 0 74.097 16.853 Q 74.929 17.229 76.062 17.688 A 90.496 90.496 0 0 0 76.44 17.84 Q 78.159 18.493 79.449 19.176 A 17.698 17.698 0 0 1 79.86 19.4 A 6.935 6.935 0 0 1 81.042 20.229 A 5.308 5.308 0 0 1 82.02 21.36 A 4.458 4.458 0 0 1 82.587 22.726 Q 82.76 23.448 82.76 24.32 A 6.829 6.829 0 0 1 82.461 26.395 A 5.267 5.267 0 0 1 80.44 29.14 Q 78.612 30.448 75.667 30.725 A 17.792 17.792 0 0 1 74 30.8 A 25.885 25.885 0 0 1 72.383 30.752 Q 71.549 30.7 70.827 30.59 A 13.079 13.079 0 0 1 70.1 30.46 A 14.105 14.105 0 0 1 67.996 29.851 A 12.257 12.257 0 0 1 67.12 29.48 Z M 105.4 18.2 L 105.4 20.52 L 90.92 20.52 A 10.948 10.948 0 0 0 91.138 22.509 Q 91.373 23.623 91.855 24.493 A 5.473 5.473 0 0 0 92.66 25.6 Q 94.32 27.36 97.32 27.36 A 19.467 19.467 0 0 0 99.169 27.277 Q 100.16 27.182 101.02 26.98 A 17.933 17.933 0 0 0 103.242 26.298 A 21.604 21.604 0 0 0 104.36 25.84 L 104.36 29.36 Q 102.72 30.08 101.08 30.44 A 14.147 14.147 0 0 1 99.583 30.68 Q 98.478 30.8 97.16 30.8 A 13.621 13.621 0 0 1 94.282 30.509 A 10.548 10.548 0 0 1 91.62 29.56 Q 89.24 28.32 87.9 25.86 Q 86.662 23.586 86.568 20.338 A 18.662 18.662 0 0 1 86.56 19.8 A 18.065 18.065 0 0 1 86.76 17.04 Q 87.054 15.141 87.78 13.64 A 9.668 9.668 0 0 1 89.457 11.178 A 8.497 8.497 0 0 1 91.18 9.78 A 9.023 9.023 0 0 1 94.781 8.535 A 11.562 11.562 0 0 1 96.28 8.44 A 11.085 11.085 0 0 1 99.095 8.778 A 7.901 7.901 0 0 1 102.96 11.06 A 8.747 8.747 0 0 1 105.028 14.959 Q 105.371 16.319 105.398 17.926 A 16.428 16.428 0 0 1 105.4 18.2 Z M 183.08 26.84 L 183.08 30.04 A 6.023 6.023 0 0 1 182.481 30.266 Q 182.173 30.365 181.812 30.452 A 13.157 13.157 0 0 1 181.22 30.58 Q 180.08 30.8 178.92 30.8 A 9.018 9.018 0 0 1 176.756 30.548 A 7.873 7.873 0 0 1 175.68 30.2 A 4.666 4.666 0 0 1 173.457 28.313 A 5.839 5.839 0 0 1 173.34 28.12 Q 172.719 27.05 172.546 25.374 A 13.468 13.468 0 0 1 172.48 24 L 172.48 12.08 L 169.48 12.08 L 169.48 10.16 L 172.64 8.56 L 174.12 4 L 176.72 4 L 176.72 8.84 L 182.88 8.84 L 182.88 12.08 L 176.72 12.08 L 176.72 23.92 A 5.708 5.708 0 0 0 176.796 24.884 Q 176.976 25.929 177.58 26.52 Q 178.44 27.36 179.84 27.36 A 10.878 10.878 0 0 0 181.45 27.237 A 11.957 11.957 0 0 0 181.56 27.22 Q 182.317 27.1 182.896 26.906 A 5.568 5.568 0 0 0 183.08 26.84 Z M 64.44 8.64 L 64 12.6 Q 62.96 12.32 61.84 12.32 Q 60.24 12.32 58.82 13.12 Q 57.4 13.92 56.54 15.42 A 6.313 6.313 0 0 0 55.828 17.391 A 8.783 8.783 0 0 0 55.68 19.04 L 55.68 30.4 L 51.44 30.4 L 51.44 8.84 L 54.8 8.84 L 55.36 12.68 L 55.52 12.68 Q 56.56 10.96 58.2 9.7 A 6.085 6.085 0 0 1 61.648 8.452 A 7.666 7.666 0 0 1 62.08 8.44 A 12.119 12.119 0 0 1 62.742 8.459 A 15.589 15.589 0 0 1 63.3 8.5 A 20.773 20.773 0 0 1 63.77 8.548 Q 64.14 8.59 64.44 8.64 Z M 136 8.84 L 140.24 8.84 L 140.24 30.4 L 136 30.4 L 136 8.84 Z M 118.88 5.52 L 115.48 5.52 L 115.48 15.24 L 119.08 15.24 A 13.864 13.864 0 0 0 120.8 15.141 Q 122.619 14.913 123.687 14.158 A 3.81 3.81 0 0 0 123.92 13.98 A 4.04 4.04 0 0 0 125.269 11.769 Q 125.435 11.095 125.44 10.292 A 8.026 8.026 0 0 0 125.44 10.24 Q 125.44 8.519 124.717 7.467 A 3.28 3.28 0 0 0 123.84 6.6 A 5.135 5.135 0 0 0 122.532 5.985 Q 121.085 5.52 118.88 5.52 Z M 91 17.4 L 101.16 17.4 A 9.016 9.016 0 0 0 100.97 15.642 Q 100.737 14.563 100.222 13.716 A 5.327 5.327 0 0 0 99.94 13.3 A 3.775 3.775 0 0 0 97.736 11.882 Q 97.095 11.725 96.33 11.72 A 7.72 7.72 0 0 0 96.28 11.72 A 5.704 5.704 0 0 0 94.636 11.946 A 4.463 4.463 0 0 0 92.62 13.2 A 5.5 5.5 0 0 0 91.513 15.023 Q 91.118 16.061 91 17.4 Z M 139.238 0.847 A 2.768 2.768 0 0 0 138.16 0.64 A 3.413 3.413 0 0 0 137.632 0.68 A 2.528 2.528 0 0 0 136.42 1.2 A 1.625 1.625 0 0 0 135.978 1.758 Q 135.72 2.279 135.72 3.08 Q 135.72 4.36 136.42 4.94 A 2.43 2.43 0 0 0 137.317 5.409 A 3.076 3.076 0 0 0 138.16 5.52 Q 139.12 5.52 139.84 4.94 Q 140.56 4.36 140.56 3.08 Q 140.56 2.441 140.391 1.98 A 1.702 1.702 0 0 0 139.84 1.2 A 2.629 2.629 0 0 0 139.238 0.847 Z"/></g></svg>